<mxfile host="app.diagrams.net" modified="2024-01-09T03:01:10.114Z" agent="Mozilla/5.0 (Macintosh; Intel Mac OS X 10_15_7) AppleWebKit/537.36 (KHTML, like Gecko) Chrome/119.0.0.0 Safari/537.36" etag="3zcTknz7B2oY6crZz1Tz" version="22.1.17" type="device">
  <diagram name="Page-1" id="T79jQx63mhFErR72Ngjj">
    <mxGraphModel dx="3471" dy="3274" grid="0" gridSize="10" guides="1" tooltips="1" connect="1" arrows="1" fold="1" page="0" pageScale="1" pageWidth="1100" pageHeight="850" math="0" shadow="0">
      <root>
        <mxCell id="0" />
        <mxCell id="1" parent="0" />
        <mxCell id="1LS25auxxgMVksMe1yez-5" value="Pool" style="swimlane;html=1;childLayout=stackLayout;resizeParent=1;resizeParentMax=0;horizontal=0;startSize=20;horizontalStack=0;whiteSpace=wrap;" vertex="1" parent="1">
          <mxGeometry x="248" y="-425" width="2610" height="700" as="geometry">
            <mxRectangle x="260" y="170" width="40" height="60" as="alternateBounds" />
          </mxGeometry>
        </mxCell>
        <mxCell id="1LS25auxxgMVksMe1yez-6" value="ACN HR" style="swimlane;html=1;startSize=20;horizontal=0;fillColor=#1ba1e2;strokeColor=#006EAF;fontColor=#ffffff;" vertex="1" parent="1LS25auxxgMVksMe1yez-5">
          <mxGeometry x="20" width="2590" height="220" as="geometry" />
        </mxCell>
        <mxCell id="1LS25auxxgMVksMe1yez-15" value="&lt;p style=&quot;line-height:1.2;margin-top:0pt;margin-bottom:0pt;&quot; dir=&quot;ltr&quot;&gt;&lt;/p&gt;&lt;div&gt;&lt;/div&gt;&lt;span style=&quot;font-size: 9pt; font-family: Lato, sans-serif; background-color: transparent; font-variant-numeric: normal; font-variant-east-asian: normal; font-variant-alternates: normal; font-variant-position: normal; vertical-align: baseline;&quot;&gt;On the first of every month, ACN HR sends an email blast to employees with birthdays on the following month to fill out the &lt;/span&gt;&lt;span style=&quot;font-size: 9pt; font-family: Lato, sans-serif; background-color: transparent; font-weight: 700; font-variant-numeric: normal; font-variant-east-asian: normal; font-variant-alternates: normal; font-variant-position: normal; vertical-align: baseline;&quot;&gt;APE Booking Form&lt;/span&gt;&lt;span id=&quot;docs-internal-guid-883c5b11-7fff-81fe-d9ad-dc148331fbba&quot;&gt;&lt;/span&gt;" style="rounded=1;whiteSpace=wrap;html=1;" vertex="1" parent="1LS25auxxgMVksMe1yez-6">
          <mxGeometry x="90" y="60" width="200" height="100" as="geometry" />
        </mxCell>
        <mxCell id="1LS25auxxgMVksMe1yez-45" value="&lt;p style=&quot;line-height:1.2;margin-top:0pt;margin-bottom:0pt;&quot; dir=&quot;ltr&quot;&gt;&lt;/p&gt;&lt;div&gt;&lt;/div&gt;&lt;p style=&quot;line-height:1.2;margin-top:0pt;margin-bottom:0pt;&quot; dir=&quot;ltr&quot;&gt;&lt;/p&gt;&lt;div&gt;&lt;/div&gt;&lt;p style=&quot;line-height:1.2;margin-top:0pt;margin-bottom:0pt;&quot; dir=&quot;ltr&quot;&gt;&lt;/p&gt;&lt;div&gt;&lt;/div&gt;&lt;span style=&quot;font-size: 9pt; font-family: Lato, sans-serif; background-color: transparent; font-variant-numeric: normal; font-variant-east-asian: normal; font-variant-alternates: normal; font-variant-position: normal; vertical-align: baseline;&quot;&gt;ACN HR receives a census of the employees’ PE categories and redirections to programs on a monthly basis&amp;nbsp;&lt;/span&gt;&lt;span id=&quot;docs-internal-guid-883c5b11-7fff-81fe-d9ad-dc148331fbba&quot;&gt;&lt;/span&gt;" style="rounded=1;whiteSpace=wrap;html=1;" vertex="1" parent="1LS25auxxgMVksMe1yez-6">
          <mxGeometry x="2340" y="60" width="200" height="100" as="geometry" />
        </mxCell>
        <mxCell id="1LS25auxxgMVksMe1yez-7" value="Medgrocer&lt;br&gt;" style="swimlane;html=1;startSize=20;horizontal=0;fillColor=#60a917;fontColor=#ffffff;strokeColor=#2D7600;" vertex="1" parent="1LS25auxxgMVksMe1yez-5">
          <mxGeometry x="20" y="220" width="2590" height="180" as="geometry" />
        </mxCell>
        <mxCell id="1LS25auxxgMVksMe1yez-17" value="&lt;p style=&quot;line-height:1.2;margin-top:0pt;margin-bottom:0pt;&quot; dir=&quot;ltr&quot;&gt;&lt;/p&gt;&lt;div&gt;&lt;/div&gt;&lt;p style=&quot;line-height:1.2;margin-top:0pt;margin-bottom:0pt;&quot; dir=&quot;ltr&quot;&gt;&lt;/p&gt;&lt;div&gt;&lt;/div&gt;&lt;p style=&quot;line-height:1.2;margin-top:0pt;margin-bottom:0pt;&quot; dir=&quot;ltr&quot;&gt;&lt;/p&gt;&lt;div&gt;&lt;/div&gt;&lt;span style=&quot;font-size: 9pt; font-family: Lato, sans-serif; background-color: transparent; font-variant-numeric: normal; font-variant-east-asian: normal; font-variant-alternates: normal; font-variant-position: normal; vertical-align: baseline;&quot;&gt;MedGrocer receives employee booking information, processes this,&amp;nbsp; and sends and email to confirm booking with employee&lt;/span&gt;&lt;span id=&quot;docs-internal-guid-883c5b11-7fff-81fe-d9ad-dc148331fbba&quot;&gt;&lt;/span&gt;" style="rounded=1;whiteSpace=wrap;html=1;" vertex="1" parent="1LS25auxxgMVksMe1yez-7">
          <mxGeometry x="90" y="30" width="200" height="100" as="geometry" />
        </mxCell>
        <mxCell id="1LS25auxxgMVksMe1yez-38" style="edgeStyle=orthogonalEdgeStyle;rounded=0;orthogonalLoop=1;jettySize=auto;html=1;entryX=0;entryY=0.5;entryDx=0;entryDy=0;" edge="1" parent="1LS25auxxgMVksMe1yez-7" source="1LS25auxxgMVksMe1yez-33" target="1LS25auxxgMVksMe1yez-34">
          <mxGeometry relative="1" as="geometry" />
        </mxCell>
        <mxCell id="1LS25auxxgMVksMe1yez-33" value="&lt;p style=&quot;line-height:1.2;margin-top:0pt;margin-bottom:0pt;&quot; dir=&quot;ltr&quot;&gt;&lt;/p&gt;&lt;div&gt;&lt;/div&gt;&lt;p style=&quot;line-height:1.2;margin-top:0pt;margin-bottom:0pt;&quot; dir=&quot;ltr&quot;&gt;&lt;/p&gt;&lt;div&gt;&lt;/div&gt;&lt;p style=&quot;line-height:1.2;margin-top:0pt;margin-bottom:0pt;&quot; dir=&quot;ltr&quot;&gt;&lt;/p&gt;&lt;div&gt;&lt;/div&gt;&lt;p style=&quot;line-height:1.2;margin-top:0pt;margin-bottom:0pt;&quot; dir=&quot;ltr&quot;&gt;&lt;/p&gt;&lt;div&gt;&lt;/div&gt;&lt;p style=&quot;line-height:1.2;margin-top:0pt;margin-bottom:0pt;&quot; dir=&quot;ltr&quot;&gt;&lt;/p&gt;&lt;div&gt;&lt;/div&gt;&lt;span style=&quot;font-size: 9pt; font-family: Lato, sans-serif; background-color: transparent; font-variant-numeric: normal; font-variant-east-asian: normal; font-variant-alternates: normal; font-variant-position: normal; vertical-align: baseline;&quot;&gt;MedGrocer receives APE Raw Data from Provider&lt;/span&gt;&lt;span id=&quot;docs-internal-guid-f7be8a03-7fff-7177-c28d-d922c63cb34c&quot;&gt;&lt;br&gt;&lt;/span&gt;" style="rounded=1;whiteSpace=wrap;html=1;" vertex="1" parent="1LS25auxxgMVksMe1yez-7">
          <mxGeometry x="980" y="30" width="140" height="100" as="geometry" />
        </mxCell>
        <mxCell id="1LS25auxxgMVksMe1yez-42" style="edgeStyle=orthogonalEdgeStyle;rounded=0;orthogonalLoop=1;jettySize=auto;html=1;entryX=0;entryY=0.5;entryDx=0;entryDy=0;" edge="1" parent="1LS25auxxgMVksMe1yez-7" source="1LS25auxxgMVksMe1yez-34" target="1LS25auxxgMVksMe1yez-41">
          <mxGeometry relative="1" as="geometry" />
        </mxCell>
        <mxCell id="1LS25auxxgMVksMe1yez-34" value="&lt;p style=&quot;line-height:1.2;margin-top:0pt;margin-bottom:0pt;&quot; dir=&quot;ltr&quot;&gt;&lt;/p&gt;&lt;div&gt;&lt;/div&gt;&lt;span style=&quot;font-size: 9pt; font-family: Lato, sans-serif; background-color: transparent; font-variant-numeric: normal; font-variant-east-asian: normal; font-variant-alternates: normal; font-variant-position: normal; vertical-align: baseline;&quot;&gt;MedGrocer processes APE results for sending to relevant parties and syncing into MedGrocer Admin System&lt;/span&gt;&lt;span id=&quot;docs-internal-guid-883c5b11-7fff-81fe-d9ad-dc148331fbba&quot;&gt;&lt;/span&gt;" style="rounded=1;whiteSpace=wrap;html=1;" vertex="1" parent="1LS25auxxgMVksMe1yez-7">
          <mxGeometry x="1200" y="30" width="200" height="100" as="geometry" />
        </mxCell>
        <mxCell id="1LS25auxxgMVksMe1yez-41" value="&lt;p style=&quot;line-height:1.2;margin-top:0pt;margin-bottom:0pt;&quot; dir=&quot;ltr&quot;&gt;&lt;/p&gt;&lt;div&gt;&lt;/div&gt;&lt;p style=&quot;line-height:1.2;margin-top:0pt;margin-bottom:0pt;&quot; dir=&quot;ltr&quot;&gt;&lt;/p&gt;&lt;div&gt;&lt;/div&gt;&lt;span style=&quot;font-size: 9pt; font-family: Lato, sans-serif; background-color: transparent; font-variant-numeric: normal; font-variant-east-asian: normal; font-variant-alternates: normal; font-variant-position: normal; vertical-align: baseline;&quot;&gt;MedGrocer identifies employees’ risk profile&amp;nbsp; based on revised PE categories&lt;/span&gt;&lt;span id=&quot;docs-internal-guid-883c5b11-7fff-81fe-d9ad-dc148331fbba&quot;&gt;&lt;/span&gt;" style="rounded=1;whiteSpace=wrap;html=1;" vertex="1" parent="1LS25auxxgMVksMe1yez-7">
          <mxGeometry x="1480" y="30" width="200" height="100" as="geometry" />
        </mxCell>
        <mxCell id="1LS25auxxgMVksMe1yez-8" value="Employee" style="swimlane;html=1;startSize=20;horizontal=0;fillColor=#a20025;fontColor=#ffffff;strokeColor=#6F0000;" vertex="1" parent="1LS25auxxgMVksMe1yez-5">
          <mxGeometry x="20" y="400" width="2590" height="150" as="geometry" />
        </mxCell>
        <mxCell id="1LS25auxxgMVksMe1yez-16" value="&lt;p style=&quot;line-height:1.2;margin-top:0pt;margin-bottom:0pt;&quot; dir=&quot;ltr&quot;&gt;&lt;/p&gt;&lt;div&gt;&lt;/div&gt;&lt;p style=&quot;line-height:1.2;margin-top:0pt;margin-bottom:0pt;&quot; dir=&quot;ltr&quot;&gt;&lt;/p&gt;&lt;div&gt;&lt;/div&gt;&lt;span style=&quot;font-size: 9pt; font-family: Lato, sans-serif; background-color: transparent; font-variant-numeric: normal; font-variant-east-asian: normal; font-variant-alternates: normal; font-variant-position: normal; vertical-align: baseline;&quot;&gt;Employee fills out &lt;/span&gt;&lt;span style=&quot;font-size: 9pt; font-family: Lato, sans-serif; background-color: transparent; font-weight: 700; font-variant-numeric: normal; font-variant-east-asian: normal; font-variant-alternates: normal; font-variant-position: normal; vertical-align: baseline;&quot;&gt;APE Booking Form&lt;/span&gt;&lt;span id=&quot;docs-internal-guid-883c5b11-7fff-81fe-d9ad-dc148331fbba&quot;&gt;&lt;/span&gt;" style="rounded=1;whiteSpace=wrap;html=1;" vertex="1" parent="1LS25auxxgMVksMe1yez-8">
          <mxGeometry x="120" y="30" width="140" height="100" as="geometry" />
        </mxCell>
        <mxCell id="1LS25auxxgMVksMe1yez-22" value="&lt;p style=&quot;line-height:1.2;margin-top:0pt;margin-bottom:0pt;&quot; dir=&quot;ltr&quot;&gt;&lt;/p&gt;&lt;div&gt;&lt;/div&gt;&lt;p style=&quot;line-height:1.2;margin-top:0pt;margin-bottom:0pt;&quot; dir=&quot;ltr&quot;&gt;&lt;/p&gt;&lt;div&gt;&lt;/div&gt;&lt;p style=&quot;line-height:1.2;margin-top:0pt;margin-bottom:0pt;&quot; dir=&quot;ltr&quot;&gt;&lt;/p&gt;&lt;div&gt;&lt;/div&gt;&lt;span style=&quot;font-size: 9pt; font-family: Lato, sans-serif; background-color: transparent; font-variant-numeric: normal; font-variant-east-asian: normal; font-variant-alternates: normal; font-variant-position: normal; vertical-align: baseline;&quot;&gt;Employee receives &lt;/span&gt;&lt;span style=&quot;font-size: 9pt; font-family: Lato, sans-serif; background-color: transparent; font-weight: 700; font-variant-numeric: normal; font-variant-east-asian: normal; font-variant-alternates: normal; font-variant-position: normal; vertical-align: baseline;&quot;&gt;APE Booking Number&lt;/span&gt;&lt;span id=&quot;docs-internal-guid-883c5b11-7fff-81fe-d9ad-dc148331fbba&quot;&gt;&lt;/span&gt;" style="rounded=1;whiteSpace=wrap;html=1;" vertex="1" parent="1LS25auxxgMVksMe1yez-8">
          <mxGeometry x="340" y="30" width="140" height="100" as="geometry" />
        </mxCell>
        <mxCell id="1LS25auxxgMVksMe1yez-26" value="&lt;p style=&quot;line-height:1.2;margin-top:0pt;margin-bottom:0pt;&quot; dir=&quot;ltr&quot;&gt;&lt;/p&gt;&lt;div&gt;&lt;/div&gt;&lt;p style=&quot;line-height:1.2;margin-top:0pt;margin-bottom:0pt;&quot; dir=&quot;ltr&quot;&gt;&lt;/p&gt;&lt;div&gt;&lt;/div&gt;&lt;p style=&quot;line-height:1.2;margin-top:0pt;margin-bottom:0pt;&quot; dir=&quot;ltr&quot;&gt;&lt;/p&gt;&lt;div&gt;&lt;/div&gt;&lt;p style=&quot;line-height:1.2;margin-top:0pt;margin-bottom:0pt;&quot; dir=&quot;ltr&quot;&gt;&lt;/p&gt;&lt;div&gt;&lt;/div&gt;&lt;span style=&quot;font-size: 9pt; font-family: Lato, sans-serif; background-color: transparent; font-variant-numeric: normal; font-variant-east-asian: normal; font-variant-alternates: normal; font-variant-position: normal; vertical-align: baseline;&quot;&gt;Employee attends booking and &lt;/span&gt;&lt;span style=&quot;font-size: 9pt; font-family: Lato, sans-serif; background-color: transparent; font-weight: 700; font-variant-numeric: normal; font-variant-east-asian: normal; font-variant-alternates: normal; font-variant-position: normal; vertical-align: baseline;&quot;&gt;presents APE booking number, a valid government ID, and their company ID&lt;/span&gt;&lt;span id=&quot;docs-internal-guid-883c5b11-7fff-81fe-d9ad-dc148331fbba&quot;&gt;&lt;/span&gt;" style="rounded=1;whiteSpace=wrap;html=1;" vertex="1" parent="1LS25auxxgMVksMe1yez-8">
          <mxGeometry x="560" y="30" width="200" height="100" as="geometry" />
        </mxCell>
        <mxCell id="1LS25auxxgMVksMe1yez-32" value="&lt;p style=&quot;line-height:1.2;margin-top:0pt;margin-bottom:0pt;&quot; dir=&quot;ltr&quot;&gt;&lt;/p&gt;&lt;div&gt;&lt;/div&gt;&lt;span style=&quot;font-size: 9pt; font-family: Lato, sans-serif; background-color: transparent; font-variant-numeric: normal; font-variant-east-asian: normal; font-variant-alternates: normal; font-variant-position: normal; vertical-align: baseline;&quot;&gt;Employee receives test results through Provider’s standard channels&amp;nbsp;&lt;/span&gt;&lt;span id=&quot;docs-internal-guid-883c5b11-7fff-81fe-d9ad-dc148331fbba&quot;&gt;&lt;br&gt;&lt;/span&gt;" style="rounded=1;whiteSpace=wrap;html=1;" vertex="1" parent="1LS25auxxgMVksMe1yez-8">
          <mxGeometry x="980" y="30" width="200" height="100" as="geometry" />
        </mxCell>
        <mxCell id="1LS25auxxgMVksMe1yez-35" value="&lt;p style=&quot;line-height:1.2;margin-top:0pt;margin-bottom:0pt;&quot; dir=&quot;ltr&quot;&gt;&lt;/p&gt;&lt;div&gt;&lt;/div&gt;&lt;span style=&quot;font-size: 9pt; font-family: Lato, sans-serif; background-color: transparent; font-variant-numeric: normal; font-variant-east-asian: normal; font-variant-alternates: normal; font-variant-position: normal; vertical-align: baseline;&quot;&gt;Employee receives test results from MedGrocer through password protected documents&lt;/span&gt;&lt;span id=&quot;docs-internal-guid-883c5b11-7fff-81fe-d9ad-dc148331fbba&quot;&gt;&lt;/span&gt;" style="rounded=1;whiteSpace=wrap;html=1;" vertex="1" parent="1LS25auxxgMVksMe1yez-8">
          <mxGeometry x="1240" y="30" width="200" height="100" as="geometry" />
        </mxCell>
        <mxCell id="1LS25auxxgMVksMe1yez-48" style="edgeStyle=orthogonalEdgeStyle;rounded=0;orthogonalLoop=1;jettySize=auto;html=1;exitX=1.02;exitY=0.371;exitDx=0;exitDy=0;exitPerimeter=0;entryX=-0.004;entryY=0.368;entryDx=0;entryDy=0;entryPerimeter=0;" edge="1" parent="1LS25auxxgMVksMe1yez-8" source="1LS25auxxgMVksMe1yez-43" target="1LS25auxxgMVksMe1yez-44">
          <mxGeometry relative="1" as="geometry" />
        </mxCell>
        <mxCell id="1LS25auxxgMVksMe1yez-43" value="&lt;p style=&quot;line-height:1.2;margin-top:0pt;margin-bottom:0pt;&quot; dir=&quot;ltr&quot;&gt;&lt;/p&gt;&lt;div&gt;&lt;/div&gt;&lt;p style=&quot;line-height:1.2;margin-top:0pt;margin-bottom:0pt;&quot; dir=&quot;ltr&quot;&gt;&lt;br&gt;&lt;/p&gt;&lt;p style=&quot;line-height:1.2;margin-top:0pt;margin-bottom:0pt;&quot; dir=&quot;ltr&quot;&gt;&lt;/p&gt;&lt;div&gt;&lt;/div&gt;&lt;span style=&quot;font-size: 9pt; font-family: Lato, sans-serif; background-color: transparent; font-variant-numeric: normal; font-variant-east-asian: normal; font-variant-alternates: normal; font-variant-position: normal; vertical-align: baseline;&quot;&gt;MedGrocer Clinic MDs will redirect employees to the relevant programs for them through the outbound calls&lt;/span&gt;&lt;p&gt;&lt;/p&gt;&lt;span style=&quot;font-size: 9pt; font-family: Lato, sans-serif; background-color: transparent; font-weight: 700; font-variant-numeric: normal; font-variant-east-asian: normal; font-variant-alternates: normal; font-variant-position: normal; vertical-align: baseline;&quot;&gt;MedGrocer Clinic MDs &lt;/span&gt;&lt;span style=&quot;font-size: 9pt; font-family: Lato, sans-serif; background-color: transparent; font-variant-numeric: normal; font-variant-east-asian: normal; font-variant-alternates: normal; font-variant-position: normal; vertical-align: baseline;&quot;&gt;will facilitate outbound calls for high and medium risk employees for their results interpretation&lt;/span&gt;&lt;span id=&quot;docs-internal-guid-883c5b11-7fff-81fe-d9ad-dc148331fbba&quot;&gt;&lt;/span&gt;" style="rounded=1;whiteSpace=wrap;html=1;" vertex="1" parent="1LS25auxxgMVksMe1yez-8">
          <mxGeometry x="1780" y="-130" width="200" height="240" as="geometry" />
        </mxCell>
        <mxCell id="1LS25auxxgMVksMe1yez-44" value="&lt;p style=&quot;line-height:1.2;margin-top:0pt;margin-bottom:0pt;&quot; dir=&quot;ltr&quot;&gt;&lt;/p&gt;&lt;div&gt;&lt;/div&gt;&lt;p style=&quot;line-height:1.2;margin-top:0pt;margin-bottom:0pt;&quot; dir=&quot;ltr&quot;&gt;&lt;/p&gt;&lt;div&gt;&lt;/div&gt;&lt;span style=&quot;font-size: 9pt; font-family: Lato, sans-serif; background-color: transparent; font-variant-numeric: normal; font-variant-east-asian: normal; font-variant-alternates: normal; font-variant-position: normal; vertical-align: baseline;&quot;&gt;Low risk employees may book their APE interpretation with a &lt;/span&gt;&lt;span style=&quot;font-size: 9pt; font-family: Lato, sans-serif; background-color: transparent; font-weight: 700; font-variant-numeric: normal; font-variant-east-asian: normal; font-variant-alternates: normal; font-variant-position: normal; vertical-align: baseline;&quot;&gt;Maxicare Telehealth thru MedGrocer&lt;/span&gt;&lt;span style=&quot;font-size: 9pt; font-family: Lato, sans-serif; background-color: transparent; font-variant-numeric: normal; font-variant-east-asian: normal; font-variant-alternates: normal; font-variant-position: normal; vertical-align: baseline;&quot;&gt; or through the &lt;/span&gt;&lt;span style=&quot;font-size: 9pt; font-family: Lato, sans-serif; background-color: transparent; font-weight: 700; font-variant-numeric: normal; font-variant-east-asian: normal; font-variant-alternates: normal; font-variant-position: normal; vertical-align: baseline;&quot;&gt;Onsite Consult Booking Link&lt;/span&gt;&lt;span id=&quot;docs-internal-guid-883c5b11-7fff-81fe-d9ad-dc148331fbba&quot;&gt;&lt;/span&gt;" style="rounded=1;whiteSpace=wrap;html=1;" vertex="1" parent="1LS25auxxgMVksMe1yez-8">
          <mxGeometry x="2060" y="-127.5" width="200" height="235" as="geometry" />
        </mxCell>
        <mxCell id="1LS25auxxgMVksMe1yez-9" value="Provider" style="swimlane;html=1;startSize=20;horizontal=0;fillColor=#6a00ff;fontColor=#ffffff;strokeColor=#3700CC;" vertex="1" parent="1LS25auxxgMVksMe1yez-5">
          <mxGeometry x="20" y="550" width="2590" height="150" as="geometry" />
        </mxCell>
        <mxCell id="1LS25auxxgMVksMe1yez-24" value="&lt;p style=&quot;line-height:1.2;margin-top:0pt;margin-bottom:0pt;&quot; dir=&quot;ltr&quot;&gt;&lt;/p&gt;&lt;div&gt;&lt;/div&gt;&lt;p style=&quot;line-height:1.2;margin-top:0pt;margin-bottom:0pt;&quot; dir=&quot;ltr&quot;&gt;&lt;/p&gt;&lt;div&gt;&lt;/div&gt;&lt;p style=&quot;line-height:1.2;margin-top:0pt;margin-bottom:0pt;&quot; dir=&quot;ltr&quot;&gt;&lt;/p&gt;&lt;div&gt;&lt;/div&gt;&lt;span style=&quot;font-size: 9pt; font-family: Lato, sans-serif; background-color: transparent; font-variant-numeric: normal; font-variant-east-asian: normal; font-variant-alternates: normal; font-variant-position: normal; vertical-align: baseline;&quot;&gt;Provider receives APE Booking from MedGrocer and incorporates into their system&lt;/span&gt;&lt;span id=&quot;docs-internal-guid-883c5b11-7fff-81fe-d9ad-dc148331fbba&quot;&gt;&lt;/span&gt;" style="rounded=1;whiteSpace=wrap;html=1;" vertex="1" parent="1LS25auxxgMVksMe1yez-9">
          <mxGeometry x="240" y="30" width="140" height="100" as="geometry" />
        </mxCell>
        <mxCell id="1LS25auxxgMVksMe1yez-31" style="edgeStyle=orthogonalEdgeStyle;rounded=0;orthogonalLoop=1;jettySize=auto;html=1;entryX=0;entryY=0.5;entryDx=0;entryDy=0;" edge="1" parent="1LS25auxxgMVksMe1yez-9" source="1LS25auxxgMVksMe1yez-28" target="1LS25auxxgMVksMe1yez-30">
          <mxGeometry relative="1" as="geometry" />
        </mxCell>
        <mxCell id="1LS25auxxgMVksMe1yez-28" value="&lt;p style=&quot;line-height:1.2;margin-top:0pt;margin-bottom:0pt;&quot; dir=&quot;ltr&quot;&gt;&lt;/p&gt;&lt;div&gt;&lt;/div&gt;&lt;p style=&quot;line-height:1.2;margin-top:0pt;margin-bottom:0pt;&quot; dir=&quot;ltr&quot;&gt;&lt;/p&gt;&lt;div&gt;&lt;/div&gt;&lt;p style=&quot;line-height:1.2;margin-top:0pt;margin-bottom:0pt;&quot; dir=&quot;ltr&quot;&gt;&lt;/p&gt;&lt;div&gt;&lt;/div&gt;&lt;p style=&quot;line-height:1.2;margin-top:0pt;margin-bottom:0pt;&quot; dir=&quot;ltr&quot;&gt;&lt;/p&gt;&lt;div&gt;&lt;/div&gt;&lt;p style=&quot;line-height:1.2;margin-top:0pt;margin-bottom:0pt;&quot; dir=&quot;ltr&quot;&gt;&lt;/p&gt;&lt;div&gt;&lt;/div&gt;&lt;span style=&quot;font-size: 9pt; font-family: Lato, sans-serif; background-color: transparent; font-variant-numeric: normal; font-variant-east-asian: normal; font-variant-alternates: normal; font-variant-position: normal; vertical-align: baseline;&quot;&gt;Provider issues a routing slip, assists, and processes employee’s PEME&lt;/span&gt;&lt;span id=&quot;docs-internal-guid-883c5b11-7fff-81fe-d9ad-dc148331fbba&quot;&gt;&lt;br&gt;&lt;/span&gt;" style="rounded=1;whiteSpace=wrap;html=1;" vertex="1" parent="1LS25auxxgMVksMe1yez-9">
          <mxGeometry x="560" y="25" width="200" height="100" as="geometry" />
        </mxCell>
        <mxCell id="1LS25auxxgMVksMe1yez-30" value="&lt;p style=&quot;line-height:1.2;margin-top:0pt;margin-bottom:0pt;&quot; dir=&quot;ltr&quot;&gt;&lt;/p&gt;&lt;div&gt;&lt;/div&gt;&lt;p style=&quot;line-height:1.2;margin-top:0pt;margin-bottom:0pt;&quot; dir=&quot;ltr&quot;&gt;&lt;/p&gt;&lt;div&gt;&lt;/div&gt;&lt;p style=&quot;line-height:1.2;margin-top:0pt;margin-bottom:0pt;&quot; dir=&quot;ltr&quot;&gt;&lt;/p&gt;&lt;div&gt;&lt;/div&gt;&lt;p style=&quot;line-height:1.2;margin-top:0pt;margin-bottom:0pt;&quot; dir=&quot;ltr&quot;&gt;&lt;/p&gt;&lt;div&gt;&lt;/div&gt;&lt;span style=&quot;font-size: 9pt; font-family: Lato, sans-serif; background-color: transparent; font-variant-numeric: normal; font-variant-east-asian: normal; font-variant-alternates: normal; font-variant-position: normal; vertical-align: baseline;&quot;&gt;Provider makes results available to &lt;/span&gt;&lt;span style=&quot;font-size: 9pt; font-family: Lato, sans-serif; color: rgb(255, 0, 0); background-color: transparent; font-weight: 700; font-variant-numeric: normal; font-variant-east-asian: normal; font-variant-alternates: normal; font-variant-position: normal; vertical-align: baseline;&quot;&gt;employee &lt;/span&gt;&lt;span style=&quot;font-size: 9pt; font-family: Lato, sans-serif; background-color: transparent; font-variant-numeric: normal; font-variant-east-asian: normal; font-variant-alternates: normal; font-variant-position: normal; vertical-align: baseline;&quot;&gt;and MedGrocer&lt;/span&gt;" style="rounded=1;whiteSpace=wrap;html=1;" vertex="1" parent="1LS25auxxgMVksMe1yez-9">
          <mxGeometry x="830" y="25" width="140" height="100" as="geometry" />
        </mxCell>
        <mxCell id="1LS25auxxgMVksMe1yez-20" style="edgeStyle=orthogonalEdgeStyle;rounded=1;orthogonalLoop=1;jettySize=auto;html=1;entryX=0;entryY=0.5;entryDx=0;entryDy=0;curved=0;" edge="1" parent="1LS25auxxgMVksMe1yez-5" source="1LS25auxxgMVksMe1yez-15" target="1LS25auxxgMVksMe1yez-16">
          <mxGeometry relative="1" as="geometry">
            <Array as="points">
              <mxPoint x="90" y="110" />
              <mxPoint x="90" y="480" />
            </Array>
          </mxGeometry>
        </mxCell>
        <mxCell id="1LS25auxxgMVksMe1yez-21" style="edgeStyle=orthogonalEdgeStyle;rounded=0;orthogonalLoop=1;jettySize=auto;html=1;entryX=0.5;entryY=1;entryDx=0;entryDy=0;exitX=0.5;exitY=0;exitDx=0;exitDy=0;" edge="1" parent="1LS25auxxgMVksMe1yez-5" source="1LS25auxxgMVksMe1yez-16" target="1LS25auxxgMVksMe1yez-17">
          <mxGeometry relative="1" as="geometry">
            <Array as="points">
              <mxPoint x="210" y="400" />
              <mxPoint x="210" y="400" />
            </Array>
          </mxGeometry>
        </mxCell>
        <mxCell id="1LS25auxxgMVksMe1yez-23" style="edgeStyle=orthogonalEdgeStyle;rounded=1;orthogonalLoop=1;jettySize=auto;html=1;entryX=0.5;entryY=0;entryDx=0;entryDy=0;curved=0;" edge="1" parent="1LS25auxxgMVksMe1yez-5" source="1LS25auxxgMVksMe1yez-17" target="1LS25auxxgMVksMe1yez-22">
          <mxGeometry relative="1" as="geometry" />
        </mxCell>
        <mxCell id="1LS25auxxgMVksMe1yez-25" style="edgeStyle=orthogonalEdgeStyle;rounded=1;orthogonalLoop=1;jettySize=auto;html=1;exitX=1;exitY=0.75;exitDx=0;exitDy=0;entryX=0.5;entryY=0;entryDx=0;entryDy=0;curved=0;" edge="1" parent="1LS25auxxgMVksMe1yez-5" source="1LS25auxxgMVksMe1yez-17" target="1LS25auxxgMVksMe1yez-24">
          <mxGeometry relative="1" as="geometry" />
        </mxCell>
        <mxCell id="1LS25auxxgMVksMe1yez-27" style="edgeStyle=orthogonalEdgeStyle;rounded=1;orthogonalLoop=1;jettySize=auto;html=1;entryX=0;entryY=0.5;entryDx=0;entryDy=0;curved=0;" edge="1" parent="1LS25auxxgMVksMe1yez-5" source="1LS25auxxgMVksMe1yez-24" target="1LS25auxxgMVksMe1yez-26">
          <mxGeometry relative="1" as="geometry">
            <Array as="points">
              <mxPoint x="530" y="610" />
              <mxPoint x="530" y="480" />
            </Array>
          </mxGeometry>
        </mxCell>
        <mxCell id="1LS25auxxgMVksMe1yez-29" style="edgeStyle=orthogonalEdgeStyle;rounded=0;orthogonalLoop=1;jettySize=auto;html=1;" edge="1" parent="1LS25auxxgMVksMe1yez-5" source="1LS25auxxgMVksMe1yez-26" target="1LS25auxxgMVksMe1yez-28">
          <mxGeometry relative="1" as="geometry" />
        </mxCell>
        <mxCell id="1LS25auxxgMVksMe1yez-36" style="edgeStyle=orthogonalEdgeStyle;rounded=1;orthogonalLoop=1;jettySize=auto;html=1;entryX=0;entryY=0.5;entryDx=0;entryDy=0;curved=0;" edge="1" parent="1LS25auxxgMVksMe1yez-5" source="1LS25auxxgMVksMe1yez-30" target="1LS25auxxgMVksMe1yez-32">
          <mxGeometry relative="1" as="geometry">
            <Array as="points">
              <mxPoint x="920" y="480" />
            </Array>
          </mxGeometry>
        </mxCell>
        <mxCell id="1LS25auxxgMVksMe1yez-37" style="edgeStyle=orthogonalEdgeStyle;rounded=1;orthogonalLoop=1;jettySize=auto;html=1;entryX=0;entryY=0.5;entryDx=0;entryDy=0;curved=0;" edge="1" parent="1LS25auxxgMVksMe1yez-5" source="1LS25auxxgMVksMe1yez-30" target="1LS25auxxgMVksMe1yez-33">
          <mxGeometry relative="1" as="geometry">
            <Array as="points">
              <mxPoint x="920" y="300" />
            </Array>
          </mxGeometry>
        </mxCell>
        <mxCell id="1LS25auxxgMVksMe1yez-40" style="edgeStyle=orthogonalEdgeStyle;rounded=1;orthogonalLoop=1;jettySize=auto;html=1;entryX=0.5;entryY=0;entryDx=0;entryDy=0;curved=0;" edge="1" parent="1LS25auxxgMVksMe1yez-5" source="1LS25auxxgMVksMe1yez-34" target="1LS25auxxgMVksMe1yez-35">
          <mxGeometry relative="1" as="geometry">
            <Array as="points">
              <mxPoint x="1320" y="390" />
              <mxPoint x="1360" y="390" />
            </Array>
          </mxGeometry>
        </mxCell>
        <mxCell id="1LS25auxxgMVksMe1yez-46" style="edgeStyle=orthogonalEdgeStyle;rounded=0;orthogonalLoop=1;jettySize=auto;html=1;entryX=0.5;entryY=1;entryDx=0;entryDy=0;exitX=0.993;exitY=0.38;exitDx=0;exitDy=0;exitPerimeter=0;" edge="1" parent="1LS25auxxgMVksMe1yez-5" source="1LS25auxxgMVksMe1yez-44" target="1LS25auxxgMVksMe1yez-45">
          <mxGeometry relative="1" as="geometry" />
        </mxCell>
        <mxCell id="1LS25auxxgMVksMe1yez-47" style="edgeStyle=orthogonalEdgeStyle;rounded=1;orthogonalLoop=1;jettySize=auto;html=1;entryX=-0.021;entryY=0.38;entryDx=0;entryDy=0;entryPerimeter=0;curved=0;" edge="1" parent="1LS25auxxgMVksMe1yez-5" source="1LS25auxxgMVksMe1yez-41" target="1LS25auxxgMVksMe1yez-43">
          <mxGeometry relative="1" as="geometry" />
        </mxCell>
        <mxCell id="1LS25auxxgMVksMe1yez-50" value="Pool" style="swimlane;html=1;childLayout=stackLayout;resizeParent=1;resizeParentMax=0;horizontal=0;startSize=20;horizontalStack=0;whiteSpace=wrap;" vertex="1" parent="1">
          <mxGeometry x="241" y="675" width="2610" height="709" as="geometry">
            <mxRectangle x="260" y="170" width="40" height="60" as="alternateBounds" />
          </mxGeometry>
        </mxCell>
        <mxCell id="1LS25auxxgMVksMe1yez-51" value="ACN HR" style="swimlane;html=1;startSize=20;horizontal=0;fillColor=#1ba1e2;strokeColor=#006EAF;fontColor=#ffffff;" vertex="1" parent="1LS25auxxgMVksMe1yez-50">
          <mxGeometry x="20" width="2590" height="220" as="geometry" />
        </mxCell>
        <mxCell id="1LS25auxxgMVksMe1yez-52" value="&lt;p style=&quot;line-height:1.2;margin-top:0pt;margin-bottom:0pt;&quot; dir=&quot;ltr&quot;&gt;&lt;/p&gt;&lt;div&gt;&lt;/div&gt;&lt;p style=&quot;line-height:1.2;margin-top:0pt;margin-bottom:0pt;&quot; dir=&quot;ltr&quot;&gt;&lt;/p&gt;&lt;div&gt;&lt;/div&gt;&lt;span style=&quot;font-size: 9pt; font-family: Lato, sans-serif; background-color: transparent; font-variant-numeric: normal; font-variant-east-asian: normal; font-variant-alternates: normal; font-variant-position: normal; vertical-align: baseline;&quot;&gt;ACN HR submits applicant details on &lt;/span&gt;&lt;span style=&quot;font-size: 9pt; font-family: Lato, sans-serif; background-color: transparent; font-weight: 700; font-variant-numeric: normal; font-variant-east-asian: normal; font-variant-alternates: normal; font-variant-position: normal; vertical-align: baseline;&quot;&gt;PEME Request Form &lt;/span&gt;&lt;span style=&quot;font-size: 9pt; font-family: Lato, sans-serif; background-color: transparent; font-variant-numeric: normal; font-variant-east-asian: normal; font-variant-alternates: normal; font-variant-position: normal; vertical-align: baseline;&quot;&gt;using their ACN account&lt;/span&gt;&lt;span id=&quot;docs-internal-guid-883c5b11-7fff-81fe-d9ad-dc148331fbba&quot;&gt;&lt;/span&gt;" style="rounded=1;whiteSpace=wrap;html=1;" vertex="1" parent="1LS25auxxgMVksMe1yez-51">
          <mxGeometry x="90" y="60" width="200" height="100" as="geometry" />
        </mxCell>
        <mxCell id="1LS25auxxgMVksMe1yez-111" value="&lt;p style=&quot;line-height:1.2;margin-top:0pt;margin-bottom:0pt;&quot; dir=&quot;ltr&quot;&gt;&lt;/p&gt;&lt;div&gt;&lt;/div&gt;&lt;p style=&quot;line-height:1.2;margin-top:0pt;margin-bottom:0pt;&quot; dir=&quot;ltr&quot;&gt;&lt;/p&gt;&lt;div&gt;&lt;/div&gt;&lt;p style=&quot;line-height:1.2;margin-top:0pt;margin-bottom:0pt;&quot; dir=&quot;ltr&quot;&gt;&lt;/p&gt;&lt;div&gt;&lt;/div&gt;&lt;p style=&quot;line-height:1.2;margin-top:0pt;margin-bottom:0pt;&quot; dir=&quot;ltr&quot;&gt;&lt;/p&gt;&lt;div&gt;&lt;/div&gt;&lt;p style=&quot;line-height:1.2;margin-top:0pt;margin-bottom:0pt;&quot; dir=&quot;ltr&quot;&gt;&lt;/p&gt;&lt;div&gt;&lt;/div&gt;&lt;p style=&quot;line-height:1.2;margin-top:0pt;margin-bottom:0pt;&quot; dir=&quot;ltr&quot;&gt;&lt;/p&gt;&lt;div&gt;&lt;/div&gt;&lt;p style=&quot;line-height:1.2;margin-top:0pt;margin-bottom:0pt;&quot; dir=&quot;ltr&quot;&gt;&lt;/p&gt;&lt;div&gt;&lt;/div&gt;&lt;p style=&quot;line-height:1.2;margin-top:0pt;margin-bottom:0pt;&quot; dir=&quot;ltr&quot;&gt;&lt;/p&gt;&lt;div&gt;&lt;/div&gt;&lt;span style=&quot;font-size: 9pt; font-family: Lato, sans-serif; background-color: transparent; font-variant-numeric: normal; font-variant-east-asian: normal; font-variant-alternates: normal; font-variant-position: normal; vertical-align: baseline;&quot;&gt;ACN HR receives itemized PEME results per applicant through the &lt;/span&gt;&lt;span style=&quot;font-size: 9pt; font-family: Lato, sans-serif; background-color: transparent; font-weight: 700; font-variant-numeric: normal; font-variant-east-asian: normal; font-variant-alternates: normal; font-variant-position: normal; vertical-align: baseline;&quot;&gt;PEME Results Reference&lt;/span&gt;&lt;span id=&quot;docs-internal-guid-883c5b11-7fff-81fe-d9ad-dc148331fbba&quot;&gt;&lt;/span&gt;" style="rounded=1;whiteSpace=wrap;html=1;" vertex="1" parent="1LS25auxxgMVksMe1yez-51">
          <mxGeometry x="1258" y="57" width="140" height="100" as="geometry" />
        </mxCell>
        <mxCell id="1LS25auxxgMVksMe1yez-54" value="Medgrocer&lt;br&gt;" style="swimlane;html=1;startSize=20;horizontal=0;fillColor=#60a917;fontColor=#ffffff;strokeColor=#2D7600;" vertex="1" parent="1LS25auxxgMVksMe1yez-50">
          <mxGeometry x="20" y="220" width="2590" height="189" as="geometry" />
        </mxCell>
        <mxCell id="1LS25auxxgMVksMe1yez-55" value="&lt;p style=&quot;line-height:1.2;margin-top:0pt;margin-bottom:0pt;&quot; dir=&quot;ltr&quot;&gt;&lt;/p&gt;&lt;div&gt;&lt;/div&gt;&lt;p style=&quot;line-height:1.2;margin-top:0pt;margin-bottom:0pt;&quot; dir=&quot;ltr&quot;&gt;&lt;/p&gt;&lt;div&gt;&lt;/div&gt;&lt;p style=&quot;line-height:1.2;margin-top:0pt;margin-bottom:0pt;&quot; dir=&quot;ltr&quot;&gt;&lt;/p&gt;&lt;div&gt;&lt;/div&gt;&lt;p style=&quot;line-height:1.2;margin-top:0pt;margin-bottom:0pt;&quot; dir=&quot;ltr&quot;&gt;&lt;/p&gt;&lt;div&gt;&lt;/div&gt;&lt;span style=&quot;font-size: 9pt; font-family: Lato, sans-serif; background-color: transparent; font-variant-numeric: normal; font-variant-east-asian: normal; font-variant-alternates: normal; font-variant-position: normal; vertical-align: baseline;&quot;&gt;MedGrocer sends applicant an email asking them to answer the &lt;/span&gt;&lt;span style=&quot;font-size: 9pt; font-family: Lato, sans-serif; background-color: transparent; font-weight: 700; font-variant-numeric: normal; font-variant-east-asian: normal; font-variant-alternates: normal; font-variant-position: normal; vertical-align: baseline;&quot;&gt;PEME Booking Form&lt;/span&gt;&lt;span id=&quot;docs-internal-guid-883c5b11-7fff-81fe-d9ad-dc148331fbba&quot;&gt;&lt;/span&gt;" style="rounded=1;whiteSpace=wrap;html=1;" vertex="1" parent="1LS25auxxgMVksMe1yez-54">
          <mxGeometry x="90" y="30" width="200" height="100" as="geometry" />
        </mxCell>
        <mxCell id="1LS25auxxgMVksMe1yez-63" value="&lt;p style=&quot;line-height:1.2;margin-top:0pt;margin-bottom:0pt;&quot; dir=&quot;ltr&quot;&gt;&lt;/p&gt;&lt;div&gt;&lt;/div&gt;&lt;p style=&quot;line-height:1.2;margin-top:0pt;margin-bottom:0pt;&quot; dir=&quot;ltr&quot;&gt;&lt;/p&gt;&lt;div&gt;&lt;/div&gt;&lt;p style=&quot;line-height:1.2;margin-top:0pt;margin-bottom:0pt;&quot; dir=&quot;ltr&quot;&gt;&lt;/p&gt;&lt;div&gt;&lt;/div&gt;&lt;p style=&quot;line-height:1.2;margin-top:0pt;margin-bottom:0pt;&quot; dir=&quot;ltr&quot;&gt;&lt;/p&gt;&lt;div&gt;&lt;/div&gt;&lt;span style=&quot;font-size: 9pt; font-family: Lato, sans-serif; background-color: transparent; font-variant-numeric: normal; font-variant-east-asian: normal; font-variant-alternates: normal; font-variant-position: normal; vertical-align: baseline;&quot;&gt;MedGrocer receives applicant information&lt;/span&gt;&lt;span id=&quot;docs-internal-guid-883c5b11-7fff-81fe-d9ad-dc148331fbba&quot;&gt;&lt;/span&gt;" style="rounded=1;whiteSpace=wrap;html=1;" vertex="1" parent="1LS25auxxgMVksMe1yez-54">
          <mxGeometry x="391" y="30" width="140" height="100" as="geometry" />
        </mxCell>
        <mxCell id="1LS25auxxgMVksMe1yez-110" style="edgeStyle=orthogonalEdgeStyle;rounded=0;orthogonalLoop=1;jettySize=auto;html=1;" edge="1" parent="1LS25auxxgMVksMe1yez-54" source="1LS25auxxgMVksMe1yez-105" target="1LS25auxxgMVksMe1yez-109">
          <mxGeometry relative="1" as="geometry" />
        </mxCell>
        <mxCell id="1LS25auxxgMVksMe1yez-105" value="&lt;p style=&quot;line-height:1.2;margin-top:0pt;margin-bottom:0pt;&quot; dir=&quot;ltr&quot;&gt;&lt;/p&gt;&lt;div&gt;&lt;/div&gt;&lt;p style=&quot;line-height:1.2;margin-top:0pt;margin-bottom:0pt;&quot; dir=&quot;ltr&quot;&gt;&lt;/p&gt;&lt;div&gt;&lt;/div&gt;&lt;p style=&quot;line-height:1.2;margin-top:0pt;margin-bottom:0pt;&quot; dir=&quot;ltr&quot;&gt;&lt;/p&gt;&lt;div&gt;&lt;/div&gt;&lt;p style=&quot;line-height:1.2;margin-top:0pt;margin-bottom:0pt;&quot; dir=&quot;ltr&quot;&gt;&lt;/p&gt;&lt;div&gt;&lt;/div&gt;&lt;p style=&quot;line-height:1.2;margin-top:0pt;margin-bottom:0pt;&quot; dir=&quot;ltr&quot;&gt;&lt;/p&gt;&lt;div&gt;&lt;/div&gt;&lt;p style=&quot;line-height:1.2;margin-top:0pt;margin-bottom:0pt;&quot; dir=&quot;ltr&quot;&gt;&lt;/p&gt;&lt;div&gt;&lt;/div&gt;&lt;span style=&quot;font-size: 9pt; font-family: Lato, sans-serif; background-color: transparent; font-variant-numeric: normal; font-variant-east-asian: normal; font-variant-alternates: normal; font-variant-position: normal; vertical-align: baseline;&quot;&gt;MedGrocer receives PEME Raw Data from Provider&lt;/span&gt;&lt;span id=&quot;docs-internal-guid-883c5b11-7fff-81fe-d9ad-dc148331fbba&quot;&gt;&lt;/span&gt;" style="rounded=1;whiteSpace=wrap;html=1;" vertex="1" parent="1LS25auxxgMVksMe1yez-54">
          <mxGeometry x="895" y="40" width="140" height="100" as="geometry" />
        </mxCell>
        <mxCell id="1LS25auxxgMVksMe1yez-109" value="&lt;p style=&quot;line-height:1.2;margin-top:0pt;margin-bottom:0pt;&quot; dir=&quot;ltr&quot;&gt;&lt;/p&gt;&lt;div&gt;&lt;/div&gt;&lt;p style=&quot;line-height:1.2;margin-top:0pt;margin-bottom:0pt;&quot; dir=&quot;ltr&quot;&gt;&lt;/p&gt;&lt;div&gt;&lt;/div&gt;&lt;p style=&quot;line-height:1.2;margin-top:0pt;margin-bottom:0pt;&quot; dir=&quot;ltr&quot;&gt;&lt;/p&gt;&lt;div&gt;&lt;/div&gt;&lt;p style=&quot;line-height:1.2;margin-top:0pt;margin-bottom:0pt;&quot; dir=&quot;ltr&quot;&gt;&lt;/p&gt;&lt;div&gt;&lt;/div&gt;&lt;p style=&quot;line-height:1.2;margin-top:0pt;margin-bottom:0pt;&quot; dir=&quot;ltr&quot;&gt;&lt;/p&gt;&lt;div&gt;&lt;/div&gt;&lt;p style=&quot;line-height:1.2;margin-top:0pt;margin-bottom:0pt;&quot; dir=&quot;ltr&quot;&gt;&lt;/p&gt;&lt;div&gt;&lt;/div&gt;&lt;p style=&quot;line-height:1.2;margin-top:0pt;margin-bottom:0pt;&quot; dir=&quot;ltr&quot;&gt;&lt;/p&gt;&lt;div&gt;&lt;/div&gt;&lt;span style=&quot;font-size: 9pt; font-family: Lato, sans-serif; background-color: transparent; font-variant-numeric: normal; font-variant-east-asian: normal; font-variant-alternates: normal; font-variant-position: normal; vertical-align: baseline;&quot;&gt;MedGrocer processes PEME results for sending to relevant parties&lt;/span&gt;&lt;span id=&quot;docs-internal-guid-883c5b11-7fff-81fe-d9ad-dc148331fbba&quot;&gt;&lt;/span&gt;" style="rounded=1;whiteSpace=wrap;html=1;" vertex="1" parent="1LS25auxxgMVksMe1yez-54">
          <mxGeometry x="1258" y="40" width="140" height="100" as="geometry" />
        </mxCell>
        <mxCell id="1LS25auxxgMVksMe1yez-117" value="If applicants &lt;br&gt;needs additional documents" style="text;html=1;align=left;verticalAlign=middle;resizable=0;points=[];autosize=1;strokeColor=none;fillColor=none;" vertex="1" parent="1LS25auxxgMVksMe1yez-54">
          <mxGeometry x="968" y="148" width="167" height="41" as="geometry" />
        </mxCell>
        <mxCell id="1LS25auxxgMVksMe1yez-61" value="Employee" style="swimlane;html=1;startSize=20;horizontal=0;fillColor=#a20025;fontColor=#ffffff;strokeColor=#6F0000;" vertex="1" parent="1LS25auxxgMVksMe1yez-50">
          <mxGeometry x="20" y="409" width="2590" height="150" as="geometry" />
        </mxCell>
        <mxCell id="1LS25auxxgMVksMe1yez-62" value="&lt;p style=&quot;line-height:1.2;margin-top:0pt;margin-bottom:0pt;&quot; dir=&quot;ltr&quot;&gt;&lt;/p&gt;&lt;div&gt;&lt;/div&gt;&lt;p style=&quot;line-height:1.2;margin-top:0pt;margin-bottom:0pt;&quot; dir=&quot;ltr&quot;&gt;&lt;/p&gt;&lt;div&gt;&lt;/div&gt;&lt;font face=&quot;Lato, sans-serif&quot;&gt;Applicant answers &lt;b&gt;PEME Booking Form&lt;/b&gt;&lt;/font&gt;&lt;br&gt;&lt;span id=&quot;docs-internal-guid-883c5b11-7fff-81fe-d9ad-dc148331fbba&quot;&gt;&lt;/span&gt;" style="rounded=1;whiteSpace=wrap;html=1;" vertex="1" parent="1LS25auxxgMVksMe1yez-61">
          <mxGeometry x="120" y="30" width="140" height="100" as="geometry" />
        </mxCell>
        <mxCell id="1LS25auxxgMVksMe1yez-71" value="&lt;p style=&quot;line-height:1.2;margin-top:0pt;margin-bottom:0pt;&quot; dir=&quot;ltr&quot;&gt;&lt;/p&gt;&lt;div&gt;&lt;/div&gt;&lt;p style=&quot;line-height:1.2;margin-top:0pt;margin-bottom:0pt;&quot; dir=&quot;ltr&quot;&gt;&lt;/p&gt;&lt;div&gt;&lt;/div&gt;&lt;p style=&quot;line-height:1.2;margin-top:0pt;margin-bottom:0pt;&quot; dir=&quot;ltr&quot;&gt;&lt;/p&gt;&lt;div&gt;&lt;/div&gt;&lt;p style=&quot;line-height:1.2;margin-top:0pt;margin-bottom:0pt;&quot; dir=&quot;ltr&quot;&gt;&lt;/p&gt;&lt;div&gt;&lt;/div&gt;&lt;span style=&quot;font-size: 9pt; font-family: Lato, sans-serif; background-color: transparent; font-variant-numeric: normal; font-variant-east-asian: normal; font-variant-alternates: normal; font-variant-position: normal; vertical-align: baseline;&quot;&gt;Applicant receives &lt;/span&gt;&lt;span style=&quot;font-size: 9pt; font-family: Lato, sans-serif; background-color: transparent; font-weight: 700; font-variant-numeric: normal; font-variant-east-asian: normal; font-variant-alternates: normal; font-variant-position: normal; vertical-align: baseline;&quot;&gt;PEME Booking Number&lt;/span&gt;&lt;span id=&quot;docs-internal-guid-883c5b11-7fff-81fe-d9ad-dc148331fbba&quot;&gt;&lt;/span&gt;" style="rounded=1;whiteSpace=wrap;html=1;" vertex="1" parent="1LS25auxxgMVksMe1yez-61">
          <mxGeometry x="391" y="19" width="140" height="100" as="geometry" />
        </mxCell>
        <mxCell id="1LS25auxxgMVksMe1yez-95" value="&lt;p style=&quot;line-height:1.2;margin-top:0pt;margin-bottom:0pt;&quot; dir=&quot;ltr&quot;&gt;&lt;/p&gt;&lt;div&gt;&lt;/div&gt;&lt;span style=&quot;font-size: 9pt; font-family: Lato, sans-serif; background-color: transparent; font-variant-numeric: normal; font-variant-east-asian: normal; font-variant-alternates: normal; font-variant-position: normal; vertical-align: baseline;&quot;&gt;Applicant attends booking and &lt;/span&gt;&lt;span style=&quot;font-size: 9pt; font-family: Lato, sans-serif; background-color: transparent; font-weight: 700; font-variant-numeric: normal; font-variant-east-asian: normal; font-variant-alternates: normal; font-variant-position: normal; vertical-align: baseline;&quot;&gt;presents PEME Booking Number and a valid government ID&lt;/span&gt;&lt;span id=&quot;docs-internal-guid-883c5b11-7fff-81fe-d9ad-dc148331fbba&quot;&gt;&lt;/span&gt;" style="rounded=1;whiteSpace=wrap;html=1;" vertex="1" parent="1LS25auxxgMVksMe1yez-61">
          <mxGeometry x="610" y="19.5" width="200" height="99" as="geometry" />
        </mxCell>
        <mxCell id="1LS25auxxgMVksMe1yez-113" value="&lt;p style=&quot;line-height:1.2;margin-top:0pt;margin-bottom:0pt;&quot; dir=&quot;ltr&quot;&gt;&lt;/p&gt;&lt;div&gt;&lt;/div&gt;&lt;p style=&quot;line-height:1.2;margin-top:0pt;margin-bottom:0pt;&quot; dir=&quot;ltr&quot;&gt;&lt;/p&gt;&lt;div&gt;&lt;/div&gt;&lt;p style=&quot;line-height:1.2;margin-top:0pt;margin-bottom:0pt;&quot; dir=&quot;ltr&quot;&gt;&lt;/p&gt;&lt;div&gt;&lt;/div&gt;&lt;p style=&quot;line-height:1.2;margin-top:0pt;margin-bottom:0pt;&quot; dir=&quot;ltr&quot;&gt;&lt;/p&gt;&lt;div&gt;&lt;/div&gt;&lt;p style=&quot;line-height:1.2;margin-top:0pt;margin-bottom:0pt;&quot; dir=&quot;ltr&quot;&gt;&lt;/p&gt;&lt;div&gt;&lt;/div&gt;&lt;span style=&quot;font-size: 9pt; font-family: Lato, sans-serif; background-color: transparent; font-variant-numeric: normal; font-variant-east-asian: normal; font-variant-alternates: normal; font-variant-position: normal; vertical-align: baseline;&quot;&gt;Applicant sends additional documents requested for results&lt;/span&gt;&lt;span id=&quot;docs-internal-guid-883c5b11-7fff-81fe-d9ad-dc148331fbba&quot;&gt;&lt;/span&gt;" style="rounded=1;whiteSpace=wrap;html=1;" vertex="1" parent="1LS25auxxgMVksMe1yez-61">
          <mxGeometry x="895" y="25" width="140" height="100" as="geometry" />
        </mxCell>
        <mxCell id="1LS25auxxgMVksMe1yez-70" value="Provider" style="swimlane;html=1;startSize=20;horizontal=0;fillColor=#6a00ff;fontColor=#ffffff;strokeColor=#3700CC;" vertex="1" parent="1LS25auxxgMVksMe1yez-50">
          <mxGeometry x="20" y="559" width="2590" height="150" as="geometry" />
        </mxCell>
        <mxCell id="1LS25auxxgMVksMe1yez-93" value="&lt;p style=&quot;line-height:1.2;margin-top:0pt;margin-bottom:0pt;&quot; dir=&quot;ltr&quot;&gt;&lt;/p&gt;&lt;div&gt;&lt;/div&gt;&lt;p style=&quot;line-height:1.2;margin-top:0pt;margin-bottom:0pt;&quot; dir=&quot;ltr&quot;&gt;&lt;/p&gt;&lt;div&gt;&lt;/div&gt;&lt;p style=&quot;line-height:1.2;margin-top:0pt;margin-bottom:0pt;&quot; dir=&quot;ltr&quot;&gt;&lt;/p&gt;&lt;div&gt;&lt;/div&gt;&lt;p style=&quot;line-height:1.2;margin-top:0pt;margin-bottom:0pt;&quot; dir=&quot;ltr&quot;&gt;&lt;/p&gt;&lt;div&gt;&lt;/div&gt;&lt;p style=&quot;line-height:1.2;margin-top:0pt;margin-bottom:0pt;&quot; dir=&quot;ltr&quot;&gt;&lt;/p&gt;&lt;div&gt;&lt;/div&gt;&lt;span style=&quot;font-size: 9pt; font-family: Lato, sans-serif; background-color: transparent; font-variant-numeric: normal; font-variant-east-asian: normal; font-variant-alternates: normal; font-variant-position: normal; vertical-align: baseline;&quot;&gt;Provider receives PEME Booking from MedGrocer&amp;nbsp;&lt;/span&gt;&lt;span id=&quot;docs-internal-guid-883c5b11-7fff-81fe-d9ad-dc148331fbba&quot;&gt;&lt;/span&gt;" style="rounded=1;whiteSpace=wrap;html=1;" vertex="1" parent="1LS25auxxgMVksMe1yez-70">
          <mxGeometry x="390" y="21" width="140" height="100" as="geometry" />
        </mxCell>
        <mxCell id="1LS25auxxgMVksMe1yez-96" value="&lt;p style=&quot;line-height:1.2;margin-top:0pt;margin-bottom:0pt;&quot; dir=&quot;ltr&quot;&gt;&lt;/p&gt;&lt;div&gt;&lt;/div&gt;&lt;p style=&quot;line-height:1.2;margin-top:0pt;margin-bottom:0pt;&quot; dir=&quot;ltr&quot;&gt;&lt;/p&gt;&lt;div&gt;&lt;/div&gt;&lt;p style=&quot;line-height:1.2;margin-top:0pt;margin-bottom:0pt;&quot; dir=&quot;ltr&quot;&gt;&lt;/p&gt;&lt;div&gt;&lt;/div&gt;&lt;p style=&quot;line-height:1.2;margin-top:0pt;margin-bottom:0pt;&quot; dir=&quot;ltr&quot;&gt;&lt;/p&gt;&lt;div&gt;&lt;/div&gt;&lt;p style=&quot;line-height:1.2;margin-top:0pt;margin-bottom:0pt;&quot; dir=&quot;ltr&quot;&gt;&lt;/p&gt;&lt;div&gt;&lt;/div&gt;&lt;span style=&quot;font-size: 9pt; font-family: Lato, sans-serif; background-color: transparent; font-variant-numeric: normal; font-variant-east-asian: normal; font-variant-alternates: normal; font-variant-position: normal; vertical-align: baseline;&quot;&gt;Provider assists and processes applicant’s PEME&lt;/span&gt;&lt;span id=&quot;docs-internal-guid-883c5b11-7fff-81fe-d9ad-dc148331fbba&quot;&gt;&lt;/span&gt;" style="rounded=1;whiteSpace=wrap;html=1;" vertex="1" parent="1LS25auxxgMVksMe1yez-70">
          <mxGeometry x="640" y="21" width="140" height="100" as="geometry" />
        </mxCell>
        <mxCell id="1LS25auxxgMVksMe1yez-103" value="&lt;p style=&quot;line-height:1.2;margin-top:0pt;margin-bottom:0pt;&quot; dir=&quot;ltr&quot;&gt;&lt;/p&gt;&lt;div&gt;&lt;/div&gt;&lt;p style=&quot;line-height:1.2;margin-top:0pt;margin-bottom:0pt;&quot; dir=&quot;ltr&quot;&gt;&lt;/p&gt;&lt;div&gt;&lt;/div&gt;&lt;p style=&quot;line-height:1.2;margin-top:0pt;margin-bottom:0pt;&quot; dir=&quot;ltr&quot;&gt;&lt;/p&gt;&lt;div&gt;&lt;/div&gt;&lt;p style=&quot;line-height:1.2;margin-top:0pt;margin-bottom:0pt;&quot; dir=&quot;ltr&quot;&gt;&lt;/p&gt;&lt;div&gt;&lt;/div&gt;&lt;p style=&quot;line-height:1.2;margin-top:0pt;margin-bottom:0pt;&quot; dir=&quot;ltr&quot;&gt;&lt;/p&gt;&lt;div&gt;&lt;/div&gt;&lt;p style=&quot;line-height:1.2;margin-top:0pt;margin-bottom:0pt;&quot; dir=&quot;ltr&quot;&gt;&lt;/p&gt;&lt;div&gt;&lt;/div&gt;&lt;span style=&quot;font-size: 9pt; font-family: Lato, sans-serif; background-color: transparent; font-variant-numeric: normal; font-variant-east-asian: normal; font-variant-alternates: normal; font-variant-position: normal; vertical-align: baseline;&quot;&gt;Provider makes results available to &lt;/span&gt;&lt;span style=&quot;font-size: 9pt; font-family: Lato, sans-serif; background-color: transparent; font-weight: 700; font-variant-numeric: normal; font-variant-east-asian: normal; font-variant-alternates: normal; font-variant-position: normal; vertical-align: baseline;&quot;&gt;applicant &lt;/span&gt;&lt;span style=&quot;font-size: 9pt; font-family: Lato, sans-serif; background-color: transparent; font-variant-numeric: normal; font-variant-east-asian: normal; font-variant-alternates: normal; font-variant-position: normal; vertical-align: baseline;&quot;&gt;and MedGrocer&lt;/span&gt;&lt;span id=&quot;docs-internal-guid-883c5b11-7fff-81fe-d9ad-dc148331fbba&quot;&gt;&lt;/span&gt;" style="rounded=1;whiteSpace=wrap;html=1;" vertex="1" parent="1LS25auxxgMVksMe1yez-70">
          <mxGeometry x="900" y="21" width="140" height="100" as="geometry" />
        </mxCell>
        <mxCell id="1LS25auxxgMVksMe1yez-101" style="edgeStyle=orthogonalEdgeStyle;rounded=1;orthogonalLoop=1;jettySize=auto;html=1;entryX=0;entryY=0.5;entryDx=0;entryDy=0;curved=0;" edge="1" parent="1LS25auxxgMVksMe1yez-70" source="1LS25auxxgMVksMe1yez-96" target="1LS25auxxgMVksMe1yez-103">
          <mxGeometry relative="1" as="geometry" />
        </mxCell>
        <mxCell id="1LS25auxxgMVksMe1yez-75" style="edgeStyle=orthogonalEdgeStyle;rounded=1;orthogonalLoop=1;jettySize=auto;html=1;entryX=0.5;entryY=0;entryDx=0;entryDy=0;curved=0;" edge="1" parent="1LS25auxxgMVksMe1yez-50" source="1LS25auxxgMVksMe1yez-52" target="1LS25auxxgMVksMe1yez-55">
          <mxGeometry relative="1" as="geometry">
            <Array as="points">
              <mxPoint x="210" y="184" />
              <mxPoint x="210" y="184" />
            </Array>
          </mxGeometry>
        </mxCell>
        <mxCell id="1LS25auxxgMVksMe1yez-90" style="edgeStyle=orthogonalEdgeStyle;rounded=0;orthogonalLoop=1;jettySize=auto;html=1;entryX=0.5;entryY=0;entryDx=0;entryDy=0;" edge="1" parent="1LS25auxxgMVksMe1yez-50" source="1LS25auxxgMVksMe1yez-55" target="1LS25auxxgMVksMe1yez-62">
          <mxGeometry relative="1" as="geometry" />
        </mxCell>
        <mxCell id="1LS25auxxgMVksMe1yez-91" style="edgeStyle=orthogonalEdgeStyle;rounded=1;orthogonalLoop=1;jettySize=auto;html=1;entryX=0;entryY=0.5;entryDx=0;entryDy=0;curved=0;" edge="1" parent="1LS25auxxgMVksMe1yez-50" source="1LS25auxxgMVksMe1yez-62" target="1LS25auxxgMVksMe1yez-63">
          <mxGeometry relative="1" as="geometry" />
        </mxCell>
        <mxCell id="1LS25auxxgMVksMe1yez-92" style="edgeStyle=orthogonalEdgeStyle;rounded=0;orthogonalLoop=1;jettySize=auto;html=1;entryX=0.5;entryY=0;entryDx=0;entryDy=0;" edge="1" parent="1LS25auxxgMVksMe1yez-50" source="1LS25auxxgMVksMe1yez-63" target="1LS25auxxgMVksMe1yez-71">
          <mxGeometry relative="1" as="geometry" />
        </mxCell>
        <mxCell id="1LS25auxxgMVksMe1yez-94" style="edgeStyle=orthogonalEdgeStyle;rounded=1;orthogonalLoop=1;jettySize=auto;html=1;exitX=0.25;exitY=1;exitDx=0;exitDy=0;entryX=0.005;entryY=0.57;entryDx=0;entryDy=0;entryPerimeter=0;curved=0;" edge="1" parent="1LS25auxxgMVksMe1yez-50" source="1LS25auxxgMVksMe1yez-63" target="1LS25auxxgMVksMe1yez-93">
          <mxGeometry relative="1" as="geometry">
            <Array as="points">
              <mxPoint x="446" y="374" />
              <mxPoint x="390" y="374" />
              <mxPoint x="390" y="628" />
            </Array>
          </mxGeometry>
        </mxCell>
        <mxCell id="1LS25auxxgMVksMe1yez-98" style="edgeStyle=orthogonalEdgeStyle;rounded=1;orthogonalLoop=1;jettySize=auto;html=1;entryX=0;entryY=0.5;entryDx=0;entryDy=0;curved=0;" edge="1" parent="1LS25auxxgMVksMe1yez-50" source="1LS25auxxgMVksMe1yez-93" target="1LS25auxxgMVksMe1yez-95">
          <mxGeometry relative="1" as="geometry" />
        </mxCell>
        <mxCell id="1LS25auxxgMVksMe1yez-99" style="edgeStyle=orthogonalEdgeStyle;rounded=0;orthogonalLoop=1;jettySize=auto;html=1;" edge="1" parent="1LS25auxxgMVksMe1yez-50" source="1LS25auxxgMVksMe1yez-95" target="1LS25auxxgMVksMe1yez-96">
          <mxGeometry relative="1" as="geometry" />
        </mxCell>
        <mxCell id="1LS25auxxgMVksMe1yez-107" style="edgeStyle=orthogonalEdgeStyle;rounded=1;orthogonalLoop=1;jettySize=auto;html=1;entryX=-0.002;entryY=0.446;entryDx=0;entryDy=0;entryPerimeter=0;curved=0;" edge="1" parent="1LS25auxxgMVksMe1yez-50" target="1LS25auxxgMVksMe1yez-105">
          <mxGeometry relative="1" as="geometry">
            <mxPoint x="920" y="591" as="sourcePoint" />
            <Array as="points">
              <mxPoint x="920" y="590" />
              <mxPoint x="858" y="590" />
              <mxPoint x="858" y="305" />
            </Array>
          </mxGeometry>
        </mxCell>
        <mxCell id="1LS25auxxgMVksMe1yez-112" style="edgeStyle=orthogonalEdgeStyle;rounded=0;orthogonalLoop=1;jettySize=auto;html=1;entryX=0.5;entryY=1;entryDx=0;entryDy=0;" edge="1" parent="1LS25auxxgMVksMe1yez-50" source="1LS25auxxgMVksMe1yez-109" target="1LS25auxxgMVksMe1yez-111">
          <mxGeometry relative="1" as="geometry" />
        </mxCell>
        <mxCell id="1LS25auxxgMVksMe1yez-114" style="edgeStyle=orthogonalEdgeStyle;rounded=0;orthogonalLoop=1;jettySize=auto;html=1;" edge="1" parent="1LS25auxxgMVksMe1yez-50" source="1LS25auxxgMVksMe1yez-105" target="1LS25auxxgMVksMe1yez-113">
          <mxGeometry relative="1" as="geometry" />
        </mxCell>
        <mxCell id="1LS25auxxgMVksMe1yez-116" style="edgeStyle=orthogonalEdgeStyle;rounded=1;orthogonalLoop=1;jettySize=auto;html=1;entryX=0.5;entryY=1;entryDx=0;entryDy=0;curved=0;" edge="1" parent="1LS25auxxgMVksMe1yez-50" source="1LS25auxxgMVksMe1yez-113" target="1LS25auxxgMVksMe1yez-109">
          <mxGeometry relative="1" as="geometry" />
        </mxCell>
        <mxCell id="1LS25auxxgMVksMe1yez-86" value="&lt;font style=&quot;font-size: 40px;&quot;&gt;APE&lt;/font&gt;" style="text;html=1;align=center;verticalAlign=middle;resizable=0;points=[];autosize=1;strokeColor=none;fillColor=none;" vertex="1" parent="1">
          <mxGeometry x="248" y="-495" width="98" height="60" as="geometry" />
        </mxCell>
        <mxCell id="1LS25auxxgMVksMe1yez-87" value="&lt;font style=&quot;font-size: 40px;&quot;&gt;PEME&lt;/font&gt;" style="text;html=1;align=center;verticalAlign=middle;resizable=0;points=[];autosize=1;strokeColor=none;fillColor=none;" vertex="1" parent="1">
          <mxGeometry x="241" y="601" width="131" height="60" as="geometry" />
        </mxCell>
      </root>
    </mxGraphModel>
  </diagram>
</mxfile>
